<?xml version="1.0" standalone="no"?><!DOCTYPE svg PUBLIC "-//W3C//DTD SVG 1.1//EN" "http://www.w3.org/Graphics/SVG/1.1/DTD/svg11.dtd"><svg t="1697519205998" class="icon" viewBox="0 0 1024 1024" version="1.1" xmlns="http://www.w3.org/2000/svg" p-id="1784" xmlns:xlink="http://www.w3.org/1999/xlink" width="81" height="81"><path d="M864.277333 376.341333a136.853333 136.853333 0 0 0-68.906666 18.645334A84.096 84.096 0 0 0 717.290667 341.333333H105.408C59.008 341.397333 21.376 379.178667 21.333333 425.813333v216.853334C21.333333 852.928 191.573333 1024 400.832 1024h21.034667c209.258667 0 379.52-171.072 379.52-381.333333v-3.541334a136.938667 136.938667 0 0 0 62.890666 15.36c76.288 0 138.389333-62.421333 138.389334-139.072s-62.101333-139.072-138.389334-139.072z m-138.389333 266.325334c0 168.448-136.384 305.493333-304 305.493333h-21.056c-167.637333 0-304-137.045333-304-305.493333V425.834667c0-4.778667 3.84-8.64 8.597333-8.64h611.84c4.736 0 8.618667 3.84 8.618667 8.64v216.832z m138.389333-64a63.146667 63.146667 0 0 1-62.912-63.232 63.146667 63.146667 0 0 1 62.912-63.210667 63.146667 63.146667 0 0 1 62.912 63.210667 63.146667 63.146667 0 0 1-62.933333 63.210666zM192.213333 278.101333c20.842667 0 37.76-16.981333 37.76-37.930666V139.093333c0-20.949333-16.917333-37.930667-37.76-37.930666s-37.76 16.981333-37.76 37.930666v101.12c0 20.949333 16.917333 37.930667 37.76 37.930667z m413.077334 0c20.842667 0 37.738667-16.981333 37.738666-37.930666V189.653333c0-20.949333-16.896-37.930667-37.76-37.930666-20.842667 0-37.738667 16.981333-37.738666 37.930666v50.56c0 20.949333 16.896 37.930667 37.76 37.930667z m-193.962667 0c20.842667 0 37.76-16.981333 37.76-37.930666V37.930667c0-20.949333-16.917333-37.930667-37.76-37.930667s-37.76 16.981333-37.76 37.930667v202.261333c0 20.949333 16.917333 37.930667 37.76 37.930667z" fill="#111111" p-id="1785"></path></svg>